{
	"asset":{
		"generator":"Khronos glTF Blender I/O v3.6.27",
		"version":"2.0"
	},
	"extensionsUsed":[
		"KHR_materials_transmission"
	],
	"scene":0,
	"scenes":[
		{
			"name":"Scene",
			"nodes":[
				5
			]
		}
	],
	"nodes":[
		{
			"mesh":0,
			"name":"body"
		},
		{
			"mesh":1,
			"name":"wheel_backLeft",
			"rotation":[
				1,
				0,
				0,
				0
			],
			"scale":[
				-1,
				-1.0000001192092896,
				-1
			],
			"translation":[
				-0.34999948740005493,
				0.2999999523162842,
				0.7599996328353882
			]
		},
		{
			"mesh":1,
			"name":"wheel_backRight",
			"translation":[
				0.35000187158584595,
				0.2999999523162842,
				0.7599996328353882
			]
		},
		{
			"mesh":1,
			"name":"wheel_frontLeft",
			"rotation":[
				1,
				0,
				0,
				0
			],
			"scale":[
				-1,
				-1.0000001192092896,
				-1
			],
			"translation":[
				-0.3499983847141266,
				0.2999999523162842,
				-0.860000491142273
			]
		},
		{
			"mesh":1,
			"name":"wheel_frontRight",
			"translation":[
				0.3500010371208191,
				0.2999999523162842,
				-0.8600002527236938
			]
		},
		{
			"children":[
				0,
				1,
				2,
				3,
				4
			],
			"name":"truck",
			"rotation":[
				0,
				0.9944629669189453,
				0,
				0.10508771985769272
			],
			"scale":[
				0.07027306407690048,
				0.07027304917573929,
				0.07027306407690048
			],
			"translation":[
				0.6307734251022339,
				0.1317845582962036,
				-0.20821449160575867
			]
		}
	],
	"materials":[
		{
			"name":"plastic",
			"pbrMetallicRoughness":{
				"baseColorFactor":[
					0.08353149890899658,
					0.08353149890899658,
					0.08353149890899658,
					1
				],
				"metallicFactor":0
			}
		},
		{
			"name":"paintGreen",
			"pbrMetallicRoughness":{
				"baseColorFactor":[
					0.05838794633746147,
					0.1901777684688568,
					0.11694343388080597,
					1
				],
				"metallicFactor":0,
				"roughnessFactor":0.7941176295280457
			}
		},
		{
			"emissiveFactor":[
				1,
				1,
				1
			],
			"extensions":{
				"KHR_materials_transmission":{
					"transmissionFactor":1
				}
			},
			"name":"lightFront",
			"pbrMetallicRoughness":{
				"baseColorFactor":[
					1,
					0.9762833118438721,
					0.9292452931404114,
					1
				],
				"metallicFactor":0
			}
		},
		{
			"name":"_defaultMat.002",
			"pbrMetallicRoughness":{
				"baseColorFactor":[
					0.2882961630821228,
					0.2882961630821228,
					0.2882961630821228,
					1
				],
				"roughnessFactor":0.6029411554336548
			}
		},
		{
			"name":"window",
			"pbrMetallicRoughness":{
				"baseColorFactor":[
					0.3532009422779083,
					0.8066426515579224,
					0.9372550845146179,
					1
				],
				"metallicFactor":0,
				"roughnessFactor":0
			}
		},
		{
			"emissiveFactor":[
				1,
				0.34670406579971313,
				0.22696588933467865
			],
			"name":"lightBack",
			"pbrMetallicRoughness":{
				"baseColorFactor":[
					1,
					0.3490196168422699,
					0.22745098173618317,
					1
				],
				"metallicFactor":0
			}
		},
		{
			"name":"carTire.002",
			"pbrMetallicRoughness":{
				"baseColorFactor":[
					0.239215686917305,
					0.239215686917305,
					0.239215686917305,
					1
				]
			}
		},
		{
			"name":"_defaultMat.003",
			"pbrMetallicRoughness":{}
		}
	],
	"meshes":[
		{
			"name":"Mesh body.002",
			"primitives":[
				{
					"attributes":{
						"POSITION":0,
						"NORMAL":1,
						"TEXCOORD_0":2
					},
					"indices":3,
					"material":0
				},
				{
					"attributes":{
						"POSITION":4,
						"NORMAL":5,
						"TEXCOORD_0":6
					},
					"indices":7,
					"material":1
				},
				{
					"attributes":{
						"POSITION":8,
						"NORMAL":9,
						"TEXCOORD_0":10
					},
					"indices":11,
					"material":2
				},
				{
					"attributes":{
						"POSITION":12,
						"NORMAL":13,
						"TEXCOORD_0":14
					},
					"indices":15,
					"material":3
				},
				{
					"attributes":{
						"POSITION":16,
						"NORMAL":17,
						"TEXCOORD_0":18
					},
					"indices":19,
					"material":4
				},
				{
					"attributes":{
						"POSITION":20,
						"NORMAL":21,
						"TEXCOORD_0":22
					},
					"indices":11,
					"material":5
				}
			]
		},
		{
			"name":"Mesh wheel_frontLeft.002",
			"primitives":[
				{
					"attributes":{
						"POSITION":23,
						"NORMAL":24,
						"TEXCOORD_0":25
					},
					"indices":26,
					"material":6
				},
				{
					"attributes":{
						"POSITION":27,
						"NORMAL":28,
						"TEXCOORD_0":29
					},
					"indices":30,
					"material":7
				}
			]
		}
	],
	"accessors":[
		{
			"bufferView":0,
			"componentType":5126,
			"count":1564,
			"max":[
				0.650537371635437,
				0.8006839156150818,
				1.4500000476837158
			],
			"min":[
				-0.6499999761581421,
				0.20000000298023224,
				-1.4500000476837158
			],
			"type":"VEC3"
		},
		{
			"bufferView":1,
			"componentType":5126,
			"count":1564,
			"type":"VEC3"
		},
		{
			"bufferView":2,
			"componentType":5126,
			"count":1564,
			"type":"VEC2"
		},
		{
			"bufferView":3,
			"componentType":5123,
			"count":1980,
			"type":"SCALAR"
		},
		{
			"bufferView":4,
			"componentType":5126,
			"count":338,
			"max":[
				0.7505373954772949,
				1.3001954555511475,
				1.4500001668930054
			],
			"min":[
				-0.75,
				0.5,
				-1.350000023841858
			],
			"type":"VEC3"
		},
		{
			"bufferView":5,
			"componentType":5126,
			"count":338,
			"type":"VEC3"
		},
		{
			"bufferView":6,
			"componentType":5126,
			"count":338,
			"type":"VEC2"
		},
		{
			"bufferView":7,
			"componentType":5123,
			"count":426,
			"type":"SCALAR"
		},
		{
			"bufferView":8,
			"componentType":5126,
			"count":8,
			"max":[
				0.550000011920929,
				0.6999022960662842,
				-1.350000023841858
			],
			"min":[
				-0.550000011920929,
				0.5,
				-1.350000023841858
			],
			"type":"VEC3"
		},
		{
			"bufferView":9,
			"componentType":5126,
			"count":8,
			"type":"VEC3"
		},
		{
			"bufferView":10,
			"componentType":5126,
			"count":8,
			"type":"VEC2"
		},
		{
			"bufferView":11,
			"componentType":5123,
			"count":12,
			"type":"SCALAR"
		},
		{
			"bufferView":12,
			"componentType":5126,
			"count":12,
			"max":[
				0.75,
				0.7996580004692078,
				-0.5229021906852722
			],
			"min":[
				-0.75,
				0.699999988079071,
				-0.5229021906852722
			],
			"type":"VEC3"
		},
		{
			"bufferView":13,
			"componentType":5126,
			"count":12,
			"type":"VEC3"
		},
		{
			"bufferView":14,
			"componentType":5126,
			"count":12,
			"type":"VEC2"
		},
		{
			"bufferView":15,
			"componentType":5123,
			"count":12,
			"type":"SCALAR"
		},
		{
			"bufferView":16,
			"componentType":5126,
			"count":30,
			"max":[
				0.550000011920929,
				1.221836805343628,
				0.21297025680541992
			],
			"min":[
				-0.550000011920929,
				0.800000011920929,
				-0.75
			],
			"type":"VEC3"
		},
		{
			"bufferView":17,
			"componentType":5126,
			"count":30,
			"type":"VEC3"
		},
		{
			"bufferView":18,
			"componentType":5126,
			"count":30,
			"type":"VEC2"
		},
		{
			"bufferView":19,
			"componentType":5123,
			"count":30,
			"type":"SCALAR"
		},
		{
			"bufferView":20,
			"componentType":5126,
			"count":8,
			"max":[
				0.550000011920929,
				0.699951171875,
				1.4500000476837158
			],
			"min":[
				-0.550000011920929,
				0.6000000238418579,
				1.4500000476837158
			],
			"type":"VEC3"
		},
		{
			"bufferView":21,
			"componentType":5126,
			"count":8,
			"type":"VEC3"
		},
		{
			"bufferView":22,
			"componentType":5126,
			"count":8,
			"type":"VEC2"
		},
		{
			"bufferView":23,
			"componentType":5126,
			"count":336,
			"max":[
				0.30014657974243164,
				0.30000001192092896,
				0.30000001192092896
			],
			"min":[
				0,
				-0.30000001192092896,
				-0.30000001192092896
			],
			"type":"VEC3"
		},
		{
			"bufferView":24,
			"componentType":5126,
			"count":336,
			"type":"VEC3"
		},
		{
			"bufferView":25,
			"componentType":5126,
			"count":336,
			"type":"VEC2"
		},
		{
			"bufferView":26,
			"componentType":5123,
			"count":498,
			"type":"SCALAR"
		},
		{
			"bufferView":27,
			"componentType":5126,
			"count":354,
			"max":[
				0.29997149109840393,
				0.18136820197105408,
				0.18136820197105408
			],
			"min":[
				0.25,
				-0.18136820197105408,
				-0.18136820197105408
			],
			"type":"VEC3"
		},
		{
			"bufferView":28,
			"componentType":5126,
			"count":354,
			"type":"VEC3"
		},
		{
			"bufferView":29,
			"componentType":5126,
			"count":354,
			"type":"VEC2"
		},
		{
			"bufferView":30,
			"componentType":5123,
			"count":354,
			"type":"SCALAR"
		}
	],
	"bufferViews":[
		{
			"buffer":0,
			"byteLength":18768,
			"byteOffset":0,
			"target":34962
		},
		{
			"buffer":0,
			"byteLength":18768,
			"byteOffset":18768,
			"target":34962
		},
		{
			"buffer":0,
			"byteLength":12512,
			"byteOffset":37536,
			"target":34962
		},
		{
			"buffer":0,
			"byteLength":3960,
			"byteOffset":50048,
			"target":34963
		},
		{
			"buffer":0,
			"byteLength":4056,
			"byteOffset":54008,
			"target":34962
		},
		{
			"buffer":0,
			"byteLength":4056,
			"byteOffset":58064,
			"target":34962
		},
		{
			"buffer":0,
			"byteLength":2704,
			"byteOffset":62120,
			"target":34962
		},
		{
			"buffer":0,
			"byteLength":852,
			"byteOffset":64824,
			"target":34963
		},
		{
			"buffer":0,
			"byteLength":96,
			"byteOffset":65676,
			"target":34962
		},
		{
			"buffer":0,
			"byteLength":96,
			"byteOffset":65772,
			"target":34962
		},
		{
			"buffer":0,
			"byteLength":64,
			"byteOffset":65868,
			"target":34962
		},
		{
			"buffer":0,
			"byteLength":24,
			"byteOffset":65932,
			"target":34963
		},
		{
			"buffer":0,
			"byteLength":144,
			"byteOffset":65956,
			"target":34962
		},
		{
			"buffer":0,
			"byteLength":144,
			"byteOffset":66100,
			"target":34962
		},
		{
			"buffer":0,
			"byteLength":96,
			"byteOffset":66244,
			"target":34962
		},
		{
			"buffer":0,
			"byteLength":24,
			"byteOffset":66340,
			"target":34963
		},
		{
			"buffer":0,
			"byteLength":360,
			"byteOffset":66364,
			"target":34962
		},
		{
			"buffer":0,
			"byteLength":360,
			"byteOffset":66724,
			"target":34962
		},
		{
			"buffer":0,
			"byteLength":240,
			"byteOffset":67084,
			"target":34962
		},
		{
			"buffer":0,
			"byteLength":60,
			"byteOffset":67324,
			"target":34963
		},
		{
			"buffer":0,
			"byteLength":96,
			"byteOffset":67384,
			"target":34962
		},
		{
			"buffer":0,
			"byteLength":96,
			"byteOffset":67480,
			"target":34962
		},
		{
			"buffer":0,
			"byteLength":64,
			"byteOffset":67576,
			"target":34962
		},
		{
			"buffer":0,
			"byteLength":4032,
			"byteOffset":67640,
			"target":34962
		},
		{
			"buffer":0,
			"byteLength":4032,
			"byteOffset":71672,
			"target":34962
		},
		{
			"buffer":0,
			"byteLength":2688,
			"byteOffset":75704,
			"target":34962
		},
		{
			"buffer":0,
			"byteLength":996,
			"byteOffset":78392,
			"target":34963
		},
		{
			"buffer":0,
			"byteLength":4248,
			"byteOffset":79388,
			"target":34962
		},
		{
			"buffer":0,
			"byteLength":4248,
			"byteOffset":83636,
			"target":34962
		},
		{
			"buffer":0,
			"byteLength":2832,
			"byteOffset":87884,
			"target":34962
		},
		{
			"buffer":0,
			"byteLength":708,
			"byteOffset":90716,
			"target":34963
		}
	],
	"buffers":[
		{
			"byteLength":91424,
			"uri":"data:application/octet-stream;base64,"
		}
	]
}
